<?xml version="1.0" encoding="UTF-8"?>
<svg xmlns="http://www.w3.org/2000/svg" xmlns:xlink="http://www.w3.org/1999/xlink" viewBox="0 0 50 50" width="50px" height="50px">
<g id="surface37085121">
<path style=" stroke:none;fill-rule:nonzero;fill:rgb(100%,100%,100%);fill-opacity:1;" d="M 10.050781 24 C 10.546875 16.527344 16.527344 10.546875 24 10.050781 L 24 2.023438 C 12.113281 2.535156 2.535156 12.113281 2.023438 24 Z M 26 10.050781 C 33.472656 10.546875 39.453125 16.527344 39.949219 24 L 47.972656 24 C 47.464844 12.113281 37.886719 2.535156 26 2.023438 Z M 39.949219 26 C 39.453125 33.472656 33.472656 39.453125 26 39.949219 L 26 47.972656 C 37.886719 47.464844 47.464844 37.886719 47.976562 26 Z M 24 39.949219 C 16.527344 39.453125 10.546875 33.472656 10.050781 26 L 2.023438 26 C 2.535156 37.886719 12.113281 47.464844 24 47.976562 Z M 24 39.949219 "/>
</g>
</svg>
